<?xml version="1.0" encoding="UTF-8"?>
<svg xmlns="http://www.w3.org/2000/svg" xmlns:xlink="http://www.w3.org/1999/xlink" width="18pt" height="18pt" viewBox="0 0 24 24" version="1.1">
<g id="surface41409428">
<path style=" stroke:none;fill-rule:nonzero;fill:rgb(100%,100%,100%);fill-opacity:1;" d="M 16.484375 13.433594 C 15.90625 13.035156 14.515625 12.40625 14.5625 11.382812 C 14.589844 10.835938 14.964844 10.425781 15.375 10.015625 C 16.601562 9.058594 17.851562 8.101562 17.851562 5.914062 C 17.851562 4.59375 17.351562 3.675781 16.808594 3 L 18 3 L 20 1 L 13.324219 1 C 11.820312 1 9.800781 1.257812 8.160156 2.625 C 6.929688 3.582031 6.238281 5.101562 6.238281 6.46875 C 6.238281 8.792969 8.03125 11.09375 11.445312 10.953125 L 12.386719 10.953125 C 12.246094 11.226562 12.128906 11.519531 12.128906 12.066406 C 12.128906 12.886719 12.53125 13.441406 12.941406 13.988281 C 11.574219 14.125 9.125 14.261719 7.347656 15.355469 C 5.570312 16.449219 5 17.808594 5 18.902344 C 5 20.953125 7.039062 23.003906 11.273438 23.003906 C 16.191406 23.003906 18.960938 20.269531 18.960938 17.535156 C 18.960938 15.484375 17.839844 14.367188 16.484375 13.433594 Z M 12.359375 8.917969 C 10.609375 8.917969 9.882812 6.71875 9.882812 5.429688 C 9.882812 3.890625 10.859375 3.296875 11.726562 3.296875 C 13.386719 3.296875 14.203125 5.511719 14.203125 6.984375 C 14.203125 8.640625 13.03125 8.917969 12.359375 8.917969 Z M 12.714844 20.820312 C 10.15625 20.820312 8.507812 19.6875 8.507812 18.132812 C 8.507812 16.578125 9.933594 16.074219 10.488281 15.867188 C 11.492188 15.558594 13.722656 15.542969 13.722656 15.542969 C 15.5 16.683594 16.292969 17.316406 16.292969 18.457031 C 16.292969 19.804688 15.046875 20.820312 12.714844 20.820312 Z M 12.714844 20.820312 "/>
</g>
</svg>
