<?xml version="1.0" encoding="UTF-8"?>
<svg xmlns="http://www.w3.org/2000/svg" xmlns:xlink="http://www.w3.org/1999/xlink" width="20pt" height="20pt" viewBox="0 0 24 24" version="1.1">
<g id="surface36711880">
<path style=" stroke:none;fill-rule:nonzero;fill:rgb(100%,100%,100%);fill-opacity:1;" d="M 10 11.5 C 10.5 11.5 12 10.691406 12 8.691406 C 12 5.582031 9.246094 5 6.144531 5 C 5.558594 5 3.773438 5 2.5 5 C 1.671875 5 1 5.671875 1 6.5 L 1 17.5 C 1 18.328125 1.671875 19 2.5 19 L 8.398438 19 C 10.609375 19 12.484375 17.253906 12.5 15.042969 C 12.523438 12.003906 10 11.5 10 11.5 Z M 4 7.5 L 7.5 7.5 C 8.328125 7.5 9 8.171875 9 9 C 9 9.828125 8.328125 10.5 7.5 10.5 L 4 10.5 Z M 7.75 16.5 L 4 16.5 L 4 13 L 7.75 13 C 8.714844 13 9.5 13.785156 9.5 14.75 C 9.5 15.714844 8.714844 16.5 7.75 16.5 Z M 22.753906 14.5 C 23.167969 14.5 23.503906 14.164062 23.503906 13.75 C 23.503906 10.851562 21.5 8.5 18.503906 8.5 C 15.742188 8.5 13.503906 10.851562 13.503906 13.75 C 13.503906 16.648438 15.742188 19 18.503906 19 C 20.949219 19 22.304688 17.855469 22.96875 16.179688 C 23.097656 15.855469 22.847656 15.503906 22.5 15.503906 L 21.296875 15.503906 C 21.117188 15.503906 20.953125 15.609375 20.859375 15.765625 C 20.402344 16.519531 19.703125 17 18.765625 17 C 17.359375 17 16.335938 15.933594 16.074219 14.5 Z M 18.503906 10.5 C 19.542969 10.5 20.550781 11.328125 20.835938 12.5 L 16.199219 12.5 C 16.574219 11.324219 17.464844 10.5 18.503906 10.5 Z M 20.75 7.5 L 16.75 7.5 C 16.335938 7.5 16 7.164062 16 6.75 C 16 6.335938 16.335938 6 16.75 6 L 20.75 6 C 21.164062 6 21.5 6.335938 21.5 6.75 C 21.5 7.164062 21.164062 7.5 20.75 7.5 Z M 20.75 7.5 "/>
</g>
</svg>
